<svg width="80" height="67" viewBox="0 0 80 67" fill="none" xmlns="http://www.w3.org/2000/svg">
<g clip-path="url(#clip0_17_991)">
<path d="M46.6196 36.143C46.5561 36.1589 46.3022 36.1589 46.1911 36.1589H38.0005V38.0636H46.3339C46.3974 38.0636 46.8895 38.0636 46.9847 38.0477C48.6831 37.889 49.4609 36.4763 49.4609 35.2382C49.4609 33.9684 48.6514 32.6033 47.1117 32.4604C46.8101 32.4287 46.5561 32.4287 46.445 32.4287H41.0006C40.7625 32.4287 40.4926 32.4128 40.3974 32.3811C39.9688 32.2699 39.8101 31.889 39.8101 31.5715C39.8101 31.2858 39.9688 30.9049 40.4133 30.7779C40.5402 30.7461 40.6831 30.7303 40.9847 30.7303H48.8419V28.8572H40.8577C40.5244 28.8572 40.2704 28.8731 40.064 28.9049C38.699 29.0953 37.7466 30.1906 37.7466 31.5874C37.7466 32.7303 38.4609 34.0636 40.0323 34.2858C40.318 34.3176 40.7148 34.3176 40.8895 34.3176H46.1911C46.2863 34.3176 46.5244 34.3176 46.572 34.3334C47.1752 34.4128 47.3815 34.8573 47.3815 35.2541C47.3815 35.635 47.1434 36.0477 46.6196 36.143Z" fill="black"/>
<path d="M31.0959 36.143C31.0325 36.1589 30.7785 36.1589 30.6832 36.1589H22.4769V38.0636H30.8102C30.8737 38.0636 31.3658 38.0636 31.461 38.0477C33.1594 37.889 33.9372 36.4763 33.9372 35.2382C33.9372 33.9684 33.1277 32.6033 31.588 32.4604C31.2864 32.4287 31.0325 32.4287 30.9213 32.4287H25.4769C25.2388 32.4287 24.9689 32.4128 24.8737 32.3811C24.4451 32.2699 24.2864 31.889 24.2864 31.5715C24.2864 31.2858 24.4451 30.9049 24.8896 30.7779C25.0166 30.7461 25.1594 30.7303 25.461 30.7303H33.3182V28.8572H25.334C25.0007 28.8572 24.7467 28.8731 24.5404 28.9049C23.1753 29.0953 22.2229 30.1906 22.2229 31.5874C22.2229 32.7303 22.9372 34.0636 24.5086 34.2858C24.7943 34.3176 25.1912 34.3176 25.3658 34.3176H30.6674C30.7626 34.3176 31.0007 34.3176 31.0483 34.3334C31.6515 34.4128 31.8579 34.8573 31.8579 35.2541C31.8579 35.635 31.6356 36.0477 31.0959 36.143Z" fill="black"/>
<path d="M18.2068 28.7938H16.1433V38.1113H18.2068V28.7938Z" fill="black"/>
<path d="M11.5878 38.1113V28.7938H9.52433V35.7462L2.65129 28.7938H0.000488281V38.1113H2.06399V31.1271L8.98465 38.1113H11.5878Z" fill="black"/>
<path d="M77.953 28.7938V35.7462L71.08 28.7938H68.4292V38.1113H70.4927V31.1271L77.3975 38.1113H80.0007V28.7938H77.953Z" fill="black"/>
<path d="M57.6833 28.7938L51.8738 38.1113H54.3817L55.4135 36.4446H62.1913L63.223 38.1113H65.7151L59.9056 28.7938H57.6833ZM61.1278 34.6827H56.477L58.8103 30.9366L61.1278 34.6827Z" fill="black"/>
<path d="M11.4766 23.508C15.6354 11.3651 27.0957 3.20636 40.0164 3.20636C52.9371 3.20636 64.4133 11.3651 68.5562 23.508L68.588 23.6033H77.6832V22.508L73.9054 22.0636C71.5721 21.7937 71.08 20.762 70.4451 19.4604L70.2864 19.1429C64.826 7.52384 52.9371 0 40.0164 0C27.0799 0 15.2068 7.52384 9.74646 19.1747L9.58773 19.4921C8.95281 20.7937 8.46074 21.8255 6.1274 22.0953L2.34961 22.5398V23.635H11.429L11.4766 23.508Z" fill="black"/>
<path d="M68.588 43.3176L68.5562 43.4129C64.3975 55.5558 52.9371 63.6987 40.0164 63.6987C27.0957 63.6987 15.6195 55.5399 11.4766 43.397L11.4449 43.3018H2.36548V44.397L6.14327 44.8414C8.47661 45.1113 8.96868 46.143 9.6036 47.4446L9.76233 47.7621C15.2227 59.4129 27.1116 66.9368 40.0323 66.9368C52.953 66.9368 64.8419 59.4129 70.3022 47.778L70.461 47.4605C71.0959 46.1589 71.588 45.1272 73.9213 44.8573L77.6991 44.4129V43.3176H68.588Z" fill="black"/>
</g>
<defs>
<clipPath id="clip0_17_991">
<rect width="80" height="66.9368" fill="white"/>
</clipPath>
</defs>
</svg>
