<svg width="80" height="54" viewBox="0 0 80 54" fill="none" xmlns="http://www.w3.org/2000/svg">
<g clip-path="url(#clip0_17_974)">
<path d="M57.5718 24.827C57.5718 24.827 54.2751 25.7797 47.8979 29.6985C42.1809 33.2176 39.9391 35.582 39.9391 35.582L22.3015 23.3927C22.3015 23.3927 29.7216 17.9361 35.9215 22.1154L44.2384 27.8205L45.2529 27.1533L22.3051 11.0762C22.3051 11.0762 25.6031 10.1223 31.9766 6.20592C37.6972 2.68555 39.9391 0.320004 39.9391 0.320004L57.5754 12.5093C57.5754 12.5093 50.1565 17.9659 43.9554 13.7866L35.6385 8.08028L34.624 8.7463L57.5718 24.827Z" fill="#E20A17"/>
<path d="M43.9119 41.4553H30.4881V44.4405H36.9723L30.2598 50.707V53.2081H43.8869V50.2111H37.1067L43.9119 43.96V41.4553Z" fill="#003399"/>
<path d="M22.5845 53.5088C27.9531 53.5088 29.328 52.1375 29.328 49.1143V41.4551H25.075V48.6564C25.075 49.8659 24.0403 50.5866 22.5845 50.5866C21.0705 50.5866 20.0965 49.8623 20.0965 48.6374V41.4551H15.8435V49.1143C15.8435 52.1375 17.2184 53.5088 22.5845 53.5088Z" fill="#003399"/>
<path d="M51.7053 53.5088C57.0739 53.5088 58.4487 52.1375 58.4487 49.1143V41.4551H54.1946V48.6564C54.1946 49.8659 53.1587 50.5866 51.7053 50.5866C50.1913 50.5866 49.2137 49.8623 49.2137 48.6374V41.4551H44.9619V49.1143C44.9619 52.1375 46.3368 53.5088 51.7053 53.5088Z" fill="#003399"/>
<path d="M79.6801 41.4553H75.2451V53.2081H79.6801V41.4553Z" fill="#003399"/>
<path d="M74.5694 41.4553H68.7346L64.013 45.5109V41.4553H59.5769V53.2081H64.013V49.0396L68.3981 53.2081H74.3565L67.8712 47.1783L74.5694 41.4553Z" fill="#003399"/>
<path d="M5.36038 44.7027C5.36038 43.7941 6.70669 43.7644 7.16101 43.7644C7.61651 43.7644 8.64289 43.9463 9.34102 45.0917H14.3564C14.3564 42.8771 12.2572 41.1158 7.17647 41.1158C1.53317 41.1158 0.572203 43.5919 0.572203 45.0143C0.572203 47.6368 2.60355 48.4051 7.02067 48.8761C7.39887 48.9153 9.69663 48.8071 9.69663 49.9119C9.69663 50.7302 8.40503 50.7849 7.9293 50.7849C7.45715 50.7849 6.57349 50.7076 5.84325 49.4077H0.320068C0.320068 51.9885 2.06004 53.4799 7.92098 53.4799C13.3193 53.4799 14.7524 51.2761 14.7524 49.6003C14.7524 47.9734 13.6356 46.3178 9.03299 45.7291C7.11343 45.4806 5.36038 45.3759 5.36038 44.7027Z" fill="#003399"/>
</g>
<defs>
<clipPath id="clip0_17_974">
<rect width="80" height="53.8288" fill="white"/>
</clipPath>
</defs>
</svg>
