<svg width="80" height="52" viewBox="0 0 80 52" fill="none" xmlns="http://www.w3.org/2000/svg">
<g clip-path="url(#clip0_17_989)">
<path d="M40.0001 0.359375C18.1147 0.359375 0.369873 11.8385 0.369873 25.9948C0.369873 40.1562 18.1147 51.6406 40.0001 51.6406C61.8855 51.6406 79.6303 40.1615 79.6303 25.9948C79.6303 11.8281 61.8855 0.359375 40.0001 0.359375ZM40.0001 40.6354C36.7449 40.6354 34.0886 34.224 33.922 26.1562C35.8803 26.3281 37.9167 26.4219 40.0001 26.4219C42.0834 26.4219 44.1199 26.3281 46.0782 26.1562C45.9115 34.2188 43.2553 40.6354 40.0001 40.6354ZM34.323 19.75C35.2084 14.0469 37.4167 10 40.0001 10C42.5834 10 44.7917 14.0469 45.6772 19.75C43.8595 19.9115 41.9636 20 40.0001 20C38.0365 20 36.1407 19.9115 34.323 19.75ZM40.0001 4.06771C35.7501 4.06771 32.1251 10.4323 30.7865 19.3177C22.7292 18.0625 17.1042 15.1979 17.1042 11.8698C17.1042 7.38021 27.3542 3.73958 40.0001 3.73958C52.6459 3.73958 62.8959 7.38021 62.8959 11.8698C62.8959 15.1979 57.2709 18.0625 49.2136 19.3177C47.8751 10.4323 44.2501 4.06771 40.0001 4.06771ZM6.05216 25.0365C6.05216 20.6927 7.72404 16.6146 10.6355 13.1146C10.6042 13.3594 10.5834 13.6094 10.5834 13.8594C10.5834 19.3333 18.7917 24 30.2449 25.7188C30.2345 26.1146 30.2345 26.5156 30.2345 26.9167C30.2345 37.1198 33.0938 45.7604 37.047 48.6927C19.6772 47.6458 6.05216 37.4531 6.05216 25.0365ZM42.9532 48.6927C46.9063 45.7604 49.7657 37.1198 49.7657 26.9167C49.7657 26.5104 49.7605 26.1146 49.7553 25.7188C61.2032 24 69.4167 19.3385 69.4167 13.8594C69.4167 13.6094 69.3959 13.3594 69.3647 13.1146C72.2761 16.625 73.948 20.6927 73.948 25.0365C73.948 37.4531 60.323 47.6458 42.9532 48.6927Z" fill="#282830"/>
</g>
<defs>
<clipPath id="clip0_17_989">
<rect width="80" height="52" fill="white"/>
</clipPath>
</defs>
</svg>
