<svg width="80" height="80" viewBox="0 0 80 80" fill="none" xmlns="http://www.w3.org/2000/svg">
<path d="M40.0003 15.8484C46.7226 15.8484 52.6982 18.5871 57.0559 22.9444C61.5382 27.3017 64.1519 33.4015 64.1519 40.125C64.1519 46.7227 61.5382 52.8229 57.0559 57.1802C52.6986 61.5375 46.7226 64.2766 40.0003 64.2766C33.2773 64.2766 27.3016 61.5379 22.8201 57.1802C18.4628 52.8229 15.7241 46.7231 15.7241 40.125C15.7241 33.4019 18.4628 27.3021 22.8201 22.9444C27.3016 18.5871 33.2773 15.8484 40.0003 15.8484ZM40.0003 16.2213C33.4022 16.2213 27.4266 18.96 23.1931 23.1935C18.8357 27.5505 16.0971 33.5265 16.0971 40.1246C16.0971 46.7223 18.8357 52.6983 23.1931 56.9307C27.4262 61.288 33.4022 63.9029 40.0003 63.9029C46.598 63.9029 52.5744 61.2884 56.8064 56.9307C61.1637 52.6983 63.7786 46.7223 63.7786 40.1246C63.7786 33.5265 61.1637 27.5505 56.8064 23.1935C52.5744 18.9604 46.598 16.2213 40.0003 16.2213Z" fill="#C5C5C1"/>
<path d="M40.0003 3.02515C48.4658 3.02515 56.3096 5.888 62.5332 10.6194L66.641 6.51124L73.8624 13.7314L69.7542 17.9646C74.3607 24.1897 76.9744 31.7829 76.9744 39.9996C76.9744 60.4168 60.417 77.0991 39.9999 77.0991C19.5828 77.0991 3.02466 60.4168 3.02466 39.9996C3.02504 19.5832 19.5831 3.02515 40.0003 3.02515ZM40.0003 11.7398C24.4384 11.7398 11.7397 24.4377 11.7397 39.9996C11.7397 55.6865 24.4384 68.2602 40.0003 68.2602C55.5622 68.2602 68.2601 55.6865 68.2601 39.9996C68.2601 24.4377 55.5622 11.7398 40.0003 11.7398Z" fill="url(#paint0_radial_17_952)"/>
<path d="M40.0003 11.6149C47.8437 11.6149 54.9397 14.7276 60.1683 19.9562C65.2719 25.0606 68.5093 32.1566 68.5093 40.1242C68.5093 47.9676 65.2723 55.0629 60.1683 60.2922C54.9394 65.3958 47.8433 68.6332 40.0003 68.6332C32.1569 68.6332 24.9367 65.3962 19.8323 60.2922C14.7279 55.0625 11.491 47.9672 11.491 40.1242C11.491 32.1566 14.7279 25.0606 19.8323 19.9562C24.9367 14.7276 32.1569 11.6149 40.0003 11.6149ZM40.0003 11.989C32.2818 11.989 25.1854 15.101 20.0811 20.2053C14.9767 25.309 11.8643 32.2812 11.8643 40.1246C11.8643 47.8431 14.9763 54.9391 20.0811 60.0434C25.1854 65.0229 32.2818 68.2598 40.0003 68.2598C47.7188 68.2598 54.8148 65.0229 59.9195 60.0434C65.0228 54.9391 68.1359 47.8431 68.1359 40.1246C68.1359 32.2812 65.0228 25.309 59.9195 20.2053C54.8148 15.101 47.7188 11.989 40.0003 11.989Z" fill="url(#paint1_linear_17_952)"/>
<path d="M40.0004 2.776C48.4659 2.776 56.4335 5.63924 62.6587 10.4945L62.5337 10.6194C56.3097 5.888 48.4659 3.02514 40.0007 3.02514C19.5836 3.02514 3.02551 19.5832 3.02551 39.9996C3.02551 60.4168 19.5836 77.099 40.0007 77.099C60.4179 77.099 76.9752 60.4168 76.9752 39.9996C76.9752 31.7832 74.3615 24.1897 69.755 17.9646L69.8792 17.8396C74.4857 24.0648 77.2244 31.6587 77.2244 39.9996C77.2244 50.3326 72.992 59.6697 66.2689 66.3924C59.5459 73.1154 50.3337 77.224 40.0007 77.224C29.7916 77.224 20.4548 73.1158 13.7326 66.3924C7.00951 59.5451 2.77637 50.3326 2.77637 39.9996C2.77637 29.7912 7.00951 20.4545 13.7326 13.7314C20.4545 7.00838 29.667 2.776 40.0004 2.776Z" fill="url(#paint2_radial_17_952)"/>
<path d="M40.0003 11.864C55.5622 11.864 68.2601 24.4381 68.2601 40.125C68.2601 55.6869 55.5622 68.3848 40.0003 68.3848C24.4384 68.3848 11.7397 55.6869 11.7397 40.125C11.7397 24.4377 24.4384 11.864 40.0003 11.864ZM40.0003 15.8484C26.6792 15.8484 15.8479 26.6796 15.8479 40.125C15.8479 53.4461 26.6792 64.2762 40.0003 64.2762C53.3215 64.2762 64.1516 53.4457 64.1516 40.125C64.1516 26.6793 53.3215 15.8484 40.0003 15.8484Z" fill="url(#paint3_radial_17_952)"/>
<path opacity="0.67" d="M17.067 47.6594H3.82886C4.15533 49.2149 4.60791 50.7208 5.12371 52.1985H19.1127C18.2837 50.7695 17.5923 49.2537 17.067 47.6594Z" fill="url(#paint4_linear_17_952)"/>
<path opacity="0.86" d="M62.9512 47.6594H76.1897C75.8629 49.2149 75.4103 50.7208 74.8945 52.1985H60.9055C61.7349 50.7695 62.4263 49.2537 62.9512 47.6594Z" fill="url(#paint5_linear_17_952)"/>
<path d="M76.8506 30.6625C77.7218 33.6507 78.0951 36.7627 78.0951 39.9996C78.0951 43.3615 77.5976 46.5985 76.8506 49.7105H3.27417V49.5855H76.726C77.598 46.4735 77.9713 43.2366 77.9713 39.8754C77.9709 36.6385 77.5976 33.5265 76.8506 30.6625Z" fill="#1A171B"/>
<path d="M3.15012 30.5387H76.8511C77.5981 33.5265 77.9711 36.6385 77.9711 39.8754C77.9711 43.2366 77.5981 46.4735 76.7257 49.5855H3.27431C2.40269 46.4735 1.90479 43.2366 1.90479 39.8754C1.90479 36.6385 2.40269 33.5265 3.15012 30.5387Z" fill="url(#paint6_radial_17_952)"/>
<path d="M68.136 4.02133L76.3527 12.2381L70.2526 18.3379L70.6259 18.8358L66.2686 22.3223L64.8987 22.8202L73.8628 13.7314L66.6415 6.51124L57.6785 15.475L58.0522 14.2297L68.136 4.02133Z" fill="url(#paint7_linear_17_952)"/>
<path d="M59.9197 3.14932C67.1399 7.00875 72.9913 12.9844 76.9749 20.0804V3.14932H59.9197Z" fill="url(#paint8_radial_17_952)"/>
<path d="M59.9197 3.14932C67.1399 7.00875 72.9913 12.9844 76.9749 20.0804" stroke="#B1B0A8" stroke-width="0.3402" stroke-linecap="round"/>
<path d="M59.9197 3.14932C67.0157 7.00875 72.9913 12.9844 76.8507 20.0804" stroke="#CBCAC4" stroke-width="0.2361" stroke-linecap="round"/>
<path d="M59.7947 3.14932C67.0156 7.00875 72.8663 12.9844 76.8507 20.2053" stroke="#E6E6E1" stroke-width="0.1324" stroke-linecap="round"/>
<path d="M59.7947 3.14932C66.8907 7.1337 72.8663 12.9844 76.7257 20.2053" stroke="white" stroke-width="0.0283" stroke-linecap="round"/>
<path d="M76.9748 2.776C77.0997 2.776 77.2239 2.90019 77.2239 3.14895H59.9196H59.6704C59.6704 2.90019 59.7946 2.776 59.9196 2.776H76.9748Z" fill="url(#paint9_linear_17_952)"/>
<path d="M77.224 20.0804C77.224 20.3295 77.0998 20.4545 76.9749 20.4545L76.8511 20.2053V2.776C76.8511 2.776 76.8511 2.776 76.9749 2.776C77.0998 2.776 77.224 2.90019 77.224 3.14895V20.0804Z" fill="url(#paint10_linear_17_952)"/>
<path d="M3.28415 30.6819C2.5371 33.6701 2.03882 36.7821 2.03882 40.0191C2.03882 40.2869 2.13101 41.8732 2.13748 42.1391L2.35348 44.5436C2.35006 44.3493 2.25558 40.4301 2.25558 40.2351C2.25558 36.9981 2.79501 33.9958 3.54206 31.0076L29.6228 30.8979L40.8796 30.6819H3.28415Z" fill="url(#paint11_linear_17_952)"/>
<path d="M66.6415 44.6175C63.3409 44.6175 60.6552 42.6019 60.6552 40.1246C60.6552 37.6465 63.3409 35.6309 66.6415 35.6309C70.0122 35.6309 72.7543 37.6469 72.7543 40.1246C72.7539 42.6019 70.0118 44.6175 66.6415 44.6175ZM66.6415 36.8991C65.4225 36.8991 64.5379 38.2556 64.5379 40.1246C64.5379 41.8922 65.4423 43.2251 66.6415 43.2251C67.7828 43.2251 68.7466 41.8053 68.7466 40.1246C68.7466 38.3459 67.8023 36.8991 66.6415 36.8991ZM28.7958 44.6175C25.4944 44.6175 22.8087 42.6019 22.8087 40.1246C22.8087 37.7562 25.5504 35.7558 28.7958 35.7558C32.1657 35.7558 34.907 37.7158 34.907 40.1246C34.907 42.6019 32.1657 44.6175 28.7958 44.6175ZM28.7958 37.0229C27.5958 37.0229 26.6906 38.3562 26.6906 40.1246C26.6906 41.8922 27.5958 43.2251 28.7958 43.2251C29.9371 43.2251 30.9009 41.8053 30.9009 40.1246C30.9013 38.4434 29.9371 37.0229 28.7958 37.0229ZM50.9558 44.3684L47.0868 37.1421L45.1051 37.1482L45.0937 36.0168L53.571 36.0053L53.5824 37.1368L51.4541 37.1482L54.4522 42.2354L57.0461 37.1318L55.5623 37.1482L55.5508 36.0168L61.4133 36.0053L61.4247 37.1368L59.4213 37.1482L55.5691 44.3688H50.9558V44.3684ZM35.3939 44.3684L35.3824 42.9874L37.3855 42.976L37.3741 37.1368L35.3939 37.1482L35.3824 36.0168L43.2373 36.0053L43.2487 37.1368L41.2445 37.1482L41.256 42.9878L43.3611 42.9764C44.0419 42.9764 45.8365 42.531 45.9642 40.4975L47.2202 40.4869L47.2316 44.3688H35.3939V44.3684ZM13.1093 44.3684L9.23997 37.1421L7.25825 37.1482L7.24683 36.0168L15.7238 36.0053L15.7352 37.1368L13.6072 37.1482L16.6049 42.2354L19.3238 37.1314L17.7154 37.1482L17.704 36.0168L23.5672 36.0053L23.5786 37.1368L21.5748 37.1482L17.7226 44.3688H13.1093V44.3684Z" fill="white"/>
<path d="M66.6415 35.6423C70.0037 35.6423 72.7428 37.6347 72.7428 40.125C72.7428 42.6145 70.0041 44.6065 66.6415 44.6065C63.4056 44.6065 60.6666 42.6145 60.6666 40.125C60.6666 37.6347 63.4053 35.6423 66.6415 35.6423ZM66.6415 43.2366C67.7618 43.2366 68.7584 41.8671 68.7584 40.1246C68.7584 38.2571 67.7622 36.8876 66.6415 36.8876C65.3973 36.8876 64.526 38.2571 64.526 40.1246C64.526 41.8671 65.3973 43.2366 66.6415 43.2366ZM28.7957 35.7672C32.1569 35.7672 34.8955 37.7592 34.8955 40.1246C34.8955 42.6141 32.1569 44.6061 28.7957 44.6061C25.5588 44.6061 22.8197 42.6141 22.8197 40.1246C22.8201 37.7589 25.5588 35.7672 28.7957 35.7672ZM28.7957 43.2366C29.9161 43.2366 30.9123 41.8671 30.9123 40.1246C30.9123 38.3821 29.9161 37.0114 28.7957 37.0114C27.5504 37.0114 26.6792 38.3821 26.6792 40.1246C26.6792 41.8671 27.5504 43.2366 28.7957 43.2366ZM61.4129 36.0164V37.1364H59.4209L55.5618 44.3566H50.9554L47.0963 37.1364H45.1047V36.0164H53.5706V37.1364H51.4536L54.4418 42.2408L57.0555 37.1364H55.5618V36.0164H61.4129ZM43.2373 36.0164V37.1364H41.2449V42.9871C41.2449 42.9871 42.6144 42.9871 43.3618 42.9871C44.1089 42.9871 45.8514 42.4899 45.9763 40.4975C46.9717 40.4975 47.2209 40.4975 47.2209 40.4975V44.3566H37.3854H35.3938V42.9871H37.3854V37.1364H35.3938V36.0164H43.2373ZM23.5672 36.0164V37.1364H21.5748L17.7157 44.3566H13.1093L9.25021 37.1364H7.25821V36.0164H15.7241V37.1364H13.6075L16.5954 42.2408L19.334 37.1364H17.7154V36.0164H23.5672ZM66.6415 35.619C63.3344 35.619 60.6441 37.6404 60.6441 40.1246C60.6441 42.6084 63.3348 44.6286 66.6415 44.6286C70.0182 44.6286 72.7653 42.608 72.7653 40.1246C72.7653 37.6404 70.0182 35.619 66.6415 35.619ZM66.6415 43.2141C65.4483 43.2141 64.5489 41.8861 64.5489 40.125C64.5489 38.2625 65.4293 36.9109 66.6415 36.9109C67.7961 36.9109 68.7355 38.3528 68.7355 40.125C68.7355 41.7992 67.7763 43.2141 66.6415 43.2141ZM28.7957 35.7444C25.5439 35.7444 22.7969 37.7505 22.7969 40.125C22.7969 42.6088 25.4879 44.629 28.7957 44.629C32.1717 44.629 34.9184 42.6084 34.9184 40.125C34.9188 37.7093 32.1721 35.7444 28.7957 35.7444ZM28.7957 43.2141C27.6022 43.2141 26.702 41.8861 26.702 40.125C26.702 38.363 27.6022 37.0347 28.7957 37.0347C29.9306 37.0347 30.8894 38.4499 30.8894 40.125C30.8894 41.7992 29.9306 43.2141 28.7957 43.2141ZM61.4357 35.9935H61.4129H55.5622H55.5394V36.0164V37.1364V37.1592H55.5622H57.0186L54.4403 42.1931L51.4936 37.1592H53.5706H53.5934V37.1364V36.0164V35.9935H53.5706H45.1047H45.0818V36.0164V37.1364V37.1592H45.1047H47.0826L50.9352 44.3672L50.9416 44.379H50.9554H55.5618H55.5755L55.582 44.3672L59.4346 37.1592H61.4125H61.4354V37.1364V36.0164V35.9935H61.4357ZM43.2601 35.9935H43.2373H35.3938H35.371V36.0164V37.1364V37.1592H35.3938H37.3626V42.9646H35.3938H35.371V42.9874V44.357V44.3798H35.3938H37.3854H47.2205H47.2434V44.357V40.4979V40.475H47.2205H45.9759H45.9542L45.9531 40.4964C45.8258 42.5211 44.0392 42.9646 43.3611 42.9646H41.267V37.1592H43.2369H43.2597V37.1364V36.0164V35.9935H43.2601ZM23.59 35.9935H23.5672H17.7154H17.6925V36.0164V37.1364V37.1592H17.7154H19.2955L16.5942 42.1943L13.6472 37.1596H15.7241H15.747V37.1368V36.0168V35.9939H15.7241H7.25821H7.23535V36.0168V37.1368V37.1596H7.25821H9.23611L13.0891 44.3676L13.0955 44.3794H13.1093H17.7157H17.7294L17.7359 44.3676L21.5885 37.1592H23.5672H23.59V37.1364V36.0164V35.9935Z" fill="#1D2D28"/>
<defs>
<radialGradient id="paint0_radial_17_952" cx="0" cy="0" r="1" gradientUnits="userSpaceOnUse" gradientTransform="translate(13.5629 32.7067) scale(77.2302)">
<stop stop-color="white"/>
<stop offset="0.0469" stop-color="#FCFCFB"/>
<stop offset="0.2247" stop-color="#FAFAF9"/>
<stop offset="0.3719" stop-color="#B9B9B8"/>
<stop offset="0.4972" stop-color="#888887"/>
<stop offset="0.5923" stop-color="#6A6A69"/>
<stop offset="0.6461" stop-color="#5F5F5E"/>
<stop offset="0.7275" stop-color="#555554"/>
<stop offset="0.8673" stop-color="#3A3939"/>
<stop offset="1" stop-color="#1B1919"/>
</radialGradient>
<linearGradient id="paint1_linear_17_952" x1="25.4067" y1="35.0871" x2="53.0962" y2="44.6213" gradientUnits="userSpaceOnUse">
<stop stop-color="#E2E2DC"/>
<stop offset="1" stop-color="white"/>
</linearGradient>
<radialGradient id="paint2_radial_17_952" cx="0" cy="0" r="1" gradientUnits="userSpaceOnUse" gradientTransform="translate(61.9769 63.8307) scale(84.7574 84.7574)">
<stop stop-color="#C5C6C2"/>
<stop offset="1" stop-color="#868680"/>
</radialGradient>
<radialGradient id="paint3_radial_17_952" cx="0" cy="0" r="1" gradientUnits="userSpaceOnUse" gradientTransform="translate(53.3329 53.4572) scale(59.5203 59.5203)">
<stop stop-color="white"/>
<stop offset="0.1986" stop-color="#F2F2F3"/>
<stop offset="0.2978" stop-color="#EAEAEB"/>
<stop offset="0.2992" stop-color="#E9E9EA"/>
<stop offset="0.3715" stop-color="#C3C3C3"/>
<stop offset="0.443" stop-color="#A5A5A5"/>
<stop offset="0.5126" stop-color="#8F8F8F"/>
<stop offset="0.5794" stop-color="#828281"/>
<stop offset="0.6404" stop-color="#7E7E7D"/>
<stop offset="0.7534" stop-color="#545352"/>
<stop offset="0.8551" stop-color="#353333"/>
<stop offset="0.9408" stop-color="#222020"/>
<stop offset="1" stop-color="#1B1919"/>
</radialGradient>
<linearGradient id="paint4_linear_17_952" x1="11.4707" y1="52.4148" x2="11.4707" y2="49.7493" gradientUnits="userSpaceOnUse">
<stop stop-color="white" stop-opacity="0"/>
<stop offset="0.17" stop-color="#FAFAF9" stop-opacity="0"/>
<stop offset="0.427" stop-color="#BBBBB8" stop-opacity="0.1"/>
<stop offset="0.5232" stop-color="#8F8F8C" stop-opacity="0.2"/>
<stop offset="0.6238" stop-color="#686866" stop-opacity="0.3"/>
<stop offset="0.7234" stop-color="#4A4948" stop-opacity="0.6"/>
<stop offset="0.8206" stop-color="#343432" stop-opacity="0.8"/>
<stop offset="0.9141" stop-color="#272625" stop-opacity="0.9"/>
<stop offset="1" stop-color="#232221"/>
</linearGradient>
<linearGradient id="paint5_linear_17_952" x1="68.5476" y1="52.4148" x2="68.5476" y2="49.7493" gradientUnits="userSpaceOnUse">
<stop stop-color="white" stop-opacity="0"/>
<stop offset="0.17" stop-color="#FAFAF9" stop-opacity="0"/>
<stop offset="0.427" stop-color="#BBBBB8" stop-opacity="0"/>
<stop offset="0.5232" stop-color="#8F8F8C" stop-opacity="0"/>
<stop offset="0.6238" stop-color="#686866" stop-opacity="0"/>
<stop offset="0.7234" stop-color="#4A4948" stop-opacity="0.25"/>
<stop offset="0.8206" stop-color="#343432" stop-opacity="0.5"/>
<stop offset="0.9141" stop-color="#272625" stop-opacity="0.75"/>
<stop offset="1" stop-color="#232221"/>
</linearGradient>
<radialGradient id="paint6_radial_17_952" cx="0" cy="0" r="1" gradientUnits="userSpaceOnUse" gradientTransform="translate(5.35271 32.7102) scale(48.0488 48.0488)">
<stop stop-color="#006AB1"/>
<stop offset="0.0016" stop-color="#006AB1"/>
<stop offset="0.1275" stop-color="#0061A4"/>
<stop offset="0.2416" stop-color="#005E9F"/>
<stop offset="0.5062" stop-color="#00548E"/>
<stop offset="0.8371" stop-color="#004374"/>
<stop offset="0.9588" stop-color="#004173"/>
<stop offset="1" stop-color="#003B6F"/>
</radialGradient>
<linearGradient id="paint7_linear_17_952" x1="75.6239" y1="22.5272" x2="56.8985" y2="3.80179" gradientUnits="userSpaceOnUse">
<stop offset="0.0056" stop-color="#212111"/>
<stop offset="0.6461" stop-color="#41403F"/>
<stop offset="0.6508" stop-color="#454443"/>
<stop offset="0.6558" stop-color="#52514F"/>
<stop offset="0.6608" stop-color="#666564"/>
<stop offset="0.6659" stop-color="#838281"/>
<stop offset="0.6711" stop-color="#A9A8A6"/>
<stop offset="0.6762" stop-color="#D6D5D2"/>
<stop offset="0.68" stop-color="#FDFCF9"/>
<stop offset="0.6826" stop-color="#FAF9F6"/>
<stop offset="0.6842" stop-color="#F2F1EE"/>
<stop offset="0.6856" stop-color="#E3E2DF"/>
<stop offset="0.6869" stop-color="#CECECA"/>
<stop offset="0.688" stop-color="#B3B3AF"/>
<stop offset="0.6891" stop-color="#93938E"/>
<stop offset="0.69" stop-color="#70706B"/>
<stop offset="0.6924" stop-color="#6D6D68"/>
<stop offset="0.7145" stop-color="#535250"/>
<stop offset="0.7396" stop-color="#3E3C3D"/>
<stop offset="0.7692" stop-color="#2E2B2D"/>
<stop offset="0.8059" stop-color="#222023"/>
<stop offset="0.8573" stop-color="#1C191D"/>
<stop offset="1" stop-color="#1A171B"/>
</linearGradient>
<radialGradient id="paint8_radial_17_952" cx="0" cy="0" r="1" gradientUnits="userSpaceOnUse" gradientTransform="translate(74.0838 5.04368) scale(20.0802 20.0802)">
<stop stop-color="#555552"/>
<stop offset="1" stop-color="#50504D"/>
</radialGradient>
<linearGradient id="paint9_linear_17_952" x1="59.6703" y1="2.96263" x2="77.2239" y2="2.96263" gradientUnits="userSpaceOnUse">
<stop stop-color="#5D5D5F"/>
<stop offset="0.0852" stop-color="#505051"/>
<stop offset="0.2581" stop-color="#3C3C3C"/>
<stop offset="0.4497" stop-color="#2E2D2D"/>
<stop offset="0.6724" stop-color="#262524"/>
<stop offset="1" stop-color="#232221"/>
</linearGradient>
<linearGradient id="paint10_linear_17_952" x1="77.0372" y1="20.4546" x2="77.0372" y2="2.77604" gradientUnits="userSpaceOnUse">
<stop stop-color="#5D5D5F"/>
<stop offset="0.096" stop-color="#555456"/>
<stop offset="0.4584" stop-color="#393939"/>
<stop offset="0.7723" stop-color="#292827"/>
<stop offset="1" stop-color="#232221"/>
</linearGradient>
<linearGradient id="paint11_linear_17_952" x1="12.0824" y1="24.7169" x2="23.3221" y2="39.9191" gradientUnits="userSpaceOnUse">
<stop stop-color="white"/>
<stop offset="0.1091" stop-color="#D8E8F3"/>
<stop offset="0.3376" stop-color="#8CBCDC"/>
<stop offset="0.5419" stop-color="#5099C9"/>
<stop offset="0.7143" stop-color="#257FBC"/>
<stop offset="0.8481" stop-color="#0A70B4"/>
<stop offset="0.927" stop-color="#006AB1"/>
<stop offset="0.9288" stop-color="#046BB2"/>
<stop offset="0.9489" stop-color="#2678B8"/>
<stop offset="0.968" stop-color="#3E81BD"/>
<stop offset="0.9856" stop-color="#4D86C0"/>
<stop offset="1" stop-color="#5288C1"/>
</linearGradient>
</defs>
</svg>
